<svg xmlns="http://www.w3.org/2000/svg" viewBox="0 0 1366 258.78"><defs><style>.cls-1{fill:#626566;}</style></defs><title>Asset 1</title><g id="Layer_2" data-name="Layer 2"><g id="Layer_1-2" data-name="Layer 1"><path d="M96,257.26H0L143.94.14l144,257.12h-96l-48-85.71"/><path class="cls-1" d="M613.07,257.26h-96L661,.14,805,257.26H709l-48-85.71"/><path class="cls-1" d="M1059.9,180.17c0,43.42-59.07,78.61-132,78.61-5.13,0-10.18-.23-15.18-.57-1.51-.1-3-.28-4.47-.42-3.52-.31-7-.68-10.41-1.15q-2.37-.34-4.68-.72-5.16-.84-10.13-1.92c-1.25-.28-2.53-.53-3.77-.82-4.19-1-8.31-2.11-12.29-3.35-.23-.07-.5-.13-.74-.21a156,156,0,0,1-24.87-10.23l-1.18-.64c-3.38-1.81-6.58-3.71-9.65-5.7l-1.05-.69C808.75,218.46,796,200.22,796,180.14a48.62,48.62,0,0,1,.64-7.64H905.55v7.64c0,7.38,10,13.35,22.42,13.35s22.41-6,22.41-13.35a8.35,8.35,0,0,0-1-3.74,8.79,8.79,0,0,0-.53-.87,12.92,12.92,0,0,0-2.16-2.59,19.58,19.58,0,0,0-5.1-3.41c-1.83-.83-70.87-20.17-71-20.22-16-4.61-30.15-11.05-41.73-18.93-.54-.35-.84-.53-1.06-.69-17.16-11.92-28.44-26.94-31.14-43.44a48.62,48.62,0,0,1-.64-7.64c0-16.28,8.3-31.42,22.53-44,9.47-8.36,21.59-15.58,35.63-21.22A174.61,174.61,0,0,1,876.6,6.17a201,201,0,0,1,24.78-4.58A221.13,221.13,0,0,1,928,0c5.14,0,10.2.21,15.17.55,1.52.11,3,.27,4.49.41,3.51.32,7,.7,10.35,1.15,1.58.22,3.14.46,4.7.73,3.44.56,6.81,1.18,10.11,1.91,1.26.27,2.55.53,3.78.82,4.2,1,8.29,2.1,12.26,3.32l.81.23a157.2,157.2,0,0,1,24.85,10.23l1.21.66q5.07,2.72,9.63,5.69c.37.22.74.45,1.09.7a105.41,105.41,0,0,1,9.21,6.86c15.23,12.82,24.28,28.44,24.28,45.35a47.26,47.26,0,0,1-.64,7.64H950.38V78.61c0-7.39-10-13.36-22.41-13.36s-22.42,6-22.42,13.36a8.41,8.41,0,0,0,1,3.73,7.64,7.64,0,0,0,.55.89,12.72,12.72,0,0,0,2.15,2.56,19.21,19.21,0,0,0,5.1,3.43c1.82.82,70.86,20.17,71,20.21,16,4.61,30.14,11.06,41.72,18.92l1.12.73C1047.92,142.82,1059.91,160.63,1059.9,180.17Z"/><path class="cls-1" d="M1366,.75V257.88h-96V172.16h-96v85.72h-96V.75h96V86.46h96V.75Z"/><polyline points="503.32 129.97 474.54 77.19 431.73 0.75 323.79 0.75 395.76 129.31 323.79 257.88 431.73 257.88"/></g></g></svg>